<svg xmlns="http://www.w3.org/2000/svg" xmlns:xlink="http://www.w3.org/1999/xlink"><symbol fill="none" viewBox="0 0 24 24" id="icon-add" xmlns="http://www.w3.org/2000/svg"><path d="M12 5v14m-7-7h14" stroke="var(--icon-stroke)" stroke-width="var(--icon-stroke-width)" stroke-linecap="round" stroke-linejoin="round"/></symbol><symbol fill="none" viewBox="0 0 24 24" id="icon-case" xmlns="http://www.w3.org/2000/svg"><path d="M3 13v5a2 2 0 0 0 2 2h14a2 2 0 0 0 2-2v-5M3 13V9a2 2 0 0 1 2-2h3m-5 6c6 3 12 3 18 0m0 0V9a2 2 0 0 0-2-2h-3M8 7V5a2 2 0 0 1 2-2h4a2 2 0 0 1 2 2v2M8 7h8m-4 5v.01" stroke="var(--icon-stroke)" stroke-width="var(--icon-stroke-width)" stroke-linecap="round" stroke-linejoin="round"/></symbol><symbol fill="none" viewBox="0 0 24 24" id="icon-checkmark" xmlns="http://www.w3.org/2000/svg"><path d="m5 12 5 5L20 7" stroke="var(--icon-stroke)" stroke-width="var(--icon-stroke-width)" stroke-linecap="round" stroke-linejoin="round"/></symbol><symbol fill="none" viewBox="0 0 24 24" id="icon-home" xmlns="http://www.w3.org/2000/svg"><path d="m21 11-2-1.778M3 11l2-1.778m0 0L12 3l7 6.222m-14 0V20a1 1 0 0 0 1 1h4m9-11.778V20a1 1 0 0 1-1 1h-4m5-11.778V5m-9 16v-7h4v7m-4 0h4" stroke="var(--icon-stroke)" stroke-width="var(--icon-stroke-width)" stroke-linecap="round" stroke-linejoin="round"/></symbol><symbol fill="none" viewBox="0 0 24 24" id="icon-recommendation" xmlns="http://www.w3.org/2000/svg"><path d="M10.5 16c1 .5 2 1 3.5 1h1.844m0 0H19c1.6 0 2 1.333 2 2l-7 2.5-8-2V12h2.5c1 .333 3.5 1.2 5.5 2s2.063 2.333 1.844 3Z" stroke="var(--icon-stroke)" stroke-width="var(--icon-stroke-width)" stroke-linecap="round" stroke-linejoin="round"/><path d="M2 14a2 2 0 0 1 2-2h2v9H4a2 2 0 0 1-2-2v-5Z" stroke="var(--icon-stroke)" stroke-width="var(--icon-stroke-width)"/><path d="m17 3 1.176 2.382 2.628.382-1.902 1.854.45 2.618L17 9l-2.351 1.236.449-2.618-1.902-1.854 2.628-.382L17 3Z" stroke="var(--icon-stroke)" stroke-width="var(--icon-stroke-width)" stroke-linejoin="round"/></symbol><symbol fill="none" viewBox="0 0 20 20" id="icon-sm-chevron-down" xmlns="http://www.w3.org/2000/svg"><path d="m6 8 4 4 4-4" stroke="var(--icon-stroke)" stroke-width="var(--icon-stroke-width)" stroke-linecap="round" stroke-linejoin="round"/></symbol><symbol fill="none" viewBox="0 0 20 20" id="icon-sm-x-mark" xmlns="http://www.w3.org/2000/svg"><path d="m13 7-6 6m0-6 6 6" stroke="var(--icon-stroke)" stroke-width="var(--icon-stroke-width)" stroke-linecap="round" stroke-linejoin="round"/></symbol><symbol fill="none" viewBox="0 0 24 24" id="icon-star" xmlns="http://www.w3.org/2000/svg"><path d="m12 17.75-6.172 3.245 1.179-6.873-5-4.867 6.9-1 3.086-6.253 3.086 6.253 6.9 1-5 4.867 1.179 6.873L12 17.75Z" stroke="var(--icon-stroke)" stroke-width="var(--icon-stroke-width)" stroke-linecap="round" stroke-linejoin="round"/></symbol><symbol fill="none" viewBox="0 0 24 24" id="icon-user" xmlns="http://www.w3.org/2000/svg"><path d="M6 21v-2a4 4 0 0 1 4-4h4a4 4 0 0 1 4 4v2M16 7a4 4 0 1 1-8 0 4 4 0 0 1 8 0Z" stroke="var(--icon-stroke)" stroke-width="var(--icon-stroke-width)" stroke-linecap="round" stroke-linejoin="round"/></symbol><symbol fill="none" viewBox="0 0 24 24" id="icon-warning" xmlns="http://www.w3.org/2000/svg"><path d="M12 9v2m0 4v.01M5 19h14a2 2 0 0 0 1.84-2.75L13.74 4a2 2 0 0 0-3.5 0l-7.1 12.25A2 2 0 0 0 4.89 19" stroke="var(--icon-stroke)" stroke-width="var(--icon-stroke-width)" stroke-linecap="round" stroke-linejoin="round"/></symbol></svg>