<svg width="48" height="48" viewBox="0 0 48 48" fill="none" xmlns="http://www.w3.org/2000/svg">
<g filter="url(#filter0_i_16021_5)">
<g clip-path="url(#clip0_16021_5)">
<rect width="48" height="48" rx="16" fill="url(#paint0_linear_16021_5)"/>
<rect width="48" height="48" rx="16" fill="url(#paint1_radial_16021_5)" fill-opacity="0.9" style="mix-blend-mode:screen"/>
<rect width="48" height="48" rx="16" fill="url(#paint2_radial_16021_5)" fill-opacity="0.6" style="mix-blend-mode:screen"/>
<line x1="22" y1="9" x2="26" y2="9" stroke="white" stroke-opacity="0.87" stroke-width="2" stroke-linecap="round" stroke-linejoin="round"/>
<path d="M17 14C17.5523 14 18 13.5523 18 13C18 12.4477 17.5523 12 17 12C16.4477 12 16 12.4477 16 13C16 13.5523 16.4477 14 17 14Z" stroke="white" stroke-opacity="0.87" stroke-width="2" stroke-linecap="round" stroke-linejoin="round"/>
<path d="M31 14C31.5523 14 32 13.5523 32 13C32 12.4477 31.5523 12 31 12C30.4477 12 30 12.4477 30 13C30 13.5523 30.4477 14 31 14Z" stroke="white" stroke-opacity="0.87" stroke-width="2" stroke-linecap="round" stroke-linejoin="round"/>
<path d="M26.5 31L24 28L21.5 31" stroke="white" stroke-opacity="0.87" stroke-width="2" stroke-linecap="round" stroke-linejoin="round"/>
<path d="M10.9871 17C9.73655 18.6888 9 20.7608 9 23C9 25.2392 9.73655 27.3112 10.9871 29M37.0129 17C38.2634 18.6888 39 20.7608 39 23C39 25.2392 38.2634 27.3112 37.0129 29" stroke="white" stroke-opacity="0.87" stroke-width="2" stroke-linecap="round" stroke-linejoin="round"/>
<path d="M15.2681 25.6383C15.6779 25.8805 16.1648 26 16.7273 26C17.2932 26 17.7772 25.8784 18.1811 25.6383C18.998 25.1527 19.4545 24.2335 19.4545 23.0053V22.9947C19.4545 21.9756 19.1022 20.9021 18.1811 20.3617C17.7732 20.1224 17.2897 20 16.7273 20C16.1684 20 15.6832 20.1195 15.2734 20.3617C14.4605 20.8422 14 21.7516 14 22.9947V23.0053C14 24.2354 14.4513 25.1555 15.2681 25.6383Z" stroke="white" stroke-opacity="0.87" stroke-width="2"/>
<path d="M29.8136 25.6383C30.2233 25.8805 30.7103 26 31.2727 26C31.8387 26 32.3227 25.8784 32.7266 25.6383C33.5434 25.1527 34 24.2335 34 23.0053V22.9947C34 21.9756 33.6477 20.9021 32.7266 20.3617C32.3187 20.1224 31.8352 20 31.2727 20C30.7138 20 30.2286 20.1195 29.8189 20.3617C29.006 20.8422 28.5455 21.7516 28.5455 22.9947V23.0053C28.5455 24.2354 28.9968 25.1555 29.8136 25.6383Z" stroke="white" stroke-opacity="0.87" stroke-width="2"/>
<path d="M18 39V36M22 39V36M26 39V36M30 39V36" stroke="white" stroke-opacity="0.87" stroke-width="2" stroke-linecap="round"/>
<circle cx="24" cy="-4" r="32" fill="white" fill-opacity="0.12"/>
</g>
</g>
<defs>
<filter id="filter0_i_16021_5" x="0" y="0" width="48" height="48" filterUnits="userSpaceOnUse" color-interpolation-filters="sRGB">
<feFlood flood-opacity="0" result="BackgroundImageFix"/>
<feBlend mode="normal" in="SourceGraphic" in2="BackgroundImageFix" result="shape"/>
<feColorMatrix in="SourceAlpha" type="matrix" values="0 0 0 0 0 0 0 0 0 0 0 0 0 0 0 0 0 0 127 0" result="hardAlpha"/>
<feMorphology radius="1" operator="erode" in="SourceAlpha" result="effect1_innerShadow_16021_5"/>
<feOffset/>
<feComposite in2="hardAlpha" operator="arithmetic" k2="-1" k3="1"/>
<feColorMatrix type="matrix" values="0 0 0 0 1 0 0 0 0 1 0 0 0 0 1 0 0 0 0.24 0"/>
<feBlend mode="normal" in2="shape" result="effect1_innerShadow_16021_5"/>
</filter>
<linearGradient id="paint0_linear_16021_5" x1="24" y1="0" x2="24" y2="48" gradientUnits="userSpaceOnUse">
<stop stop-color="#221B1B"/>
<stop offset="1" stop-color="#7E6363"/>
</linearGradient>
<radialGradient id="paint1_radial_16021_5" cx="0" cy="0" r="1" gradientUnits="userSpaceOnUse" gradientTransform="translate(42.8571 4.71429) rotate(135) scale(22.8879)">
<stop stop-color="white"/>
<stop offset="0.0244315" stop-color="white" stop-opacity="0.945098"/>
<stop offset="0.0950437" stop-color="white" stop-opacity="0.8"/>
<stop offset="0.207813" stop-color="white" stop-opacity="0.607843"/>
<stop offset="0.358717" stop-color="white" stop-opacity="0.392157"/>
<stop offset="0.543732" stop-color="white" stop-opacity="0.2"/>
<stop offset="0.758834" stop-color="white" stop-opacity="0.054902"/>
<stop offset="1" stop-color="white" stop-opacity="0.01"/>
</radialGradient>
<radialGradient id="paint2_radial_16021_5" cx="0" cy="0" r="1" gradientUnits="userSpaceOnUse" gradientTransform="translate(5.14286 42.8571) rotate(-45) scale(21.8193)">
<stop stop-color="white"/>
<stop offset="0.0244315" stop-color="white" stop-opacity="0.945098"/>
<stop offset="0.0950437" stop-color="white" stop-opacity="0.8"/>
<stop offset="0.207813" stop-color="white" stop-opacity="0.607843"/>
<stop offset="0.358717" stop-color="white" stop-opacity="0.392157"/>
<stop offset="0.543732" stop-color="white" stop-opacity="0.2"/>
<stop offset="0.758834" stop-color="white" stop-opacity="0.054902"/>
<stop offset="1" stop-color="white" stop-opacity="0.01"/>
</radialGradient>
<clipPath id="clip0_16021_5">
<rect width="48" height="48" rx="16" fill="white"/>
</clipPath>
</defs>
</svg>
